<?xml version="1.0" encoding="utf-8"?>
<!-- Generator: Adobe Illustrator 24.1.1, SVG Export Plug-In . SVG Version: 6.00 Build 0)  -->
<svg version="1.1" id="Layer_1" focusable="false" xmlns="http://www.w3.org/2000/svg" xmlns:xlink="http://www.w3.org/1999/xlink"
	 x="0px" y="0px" viewBox="0 0 576 512" style="enable-background:new 0 0 576 512;" xml:space="preserve">
<style type="text/css">
	.st0{fill:#E51A1A;}
</style>
<path class="st0" d="M517.5,309.2c38.8-40,58.1-80,58.5-116.1c0.8-65.5-59.4-118.2-169.4-135C277.9,38.4,118.1,73.6,0,140.5
	C52,114,110.6,92.3,170.7,82.3c74.5-20.5,153-25.4,221.3-14.8C544.5,91.3,588.8,195,490.8,299.2c-10.2,10.8-22,21.1-35,30.6
	L304.9,103.4L114.7,388.9c-65.6-29.4-76.5-90.2-19.1-151.2c20.8-22.2,48.3-41.9,79.5-58.1c20-12.2,39.7-22.6,62-30.7
	c-65.1,20.3-122.7,52.9-161.6,92.9c-27.7,28.6-41.4,57.1-41.7,82.9c-0.5,35.1,23.4,65.1,68.4,83l-34.5,51.7h101.6l22-34.4
	c22.2,1,45.3,0,68.6-2.7l-22.8,37.1h135.5L340,406.3c18.6-5.3,36.9-11.5,54.5-18.7l45.9,71.8H542L468.6,349
	C487.1,336.9,503.6,323.5,517.5,309.2z M329.9,389.7l-25-40.6l-32.7,53.3c-23.4,3.5-46.7,5.1-69.2,4.4l101.9-159.3l78.7,123
	C366.4,377.9,348.3,384.4,329.9,389.7L329.9,389.7z"/>
</svg>
